<svg width="113" height="100" viewBox="0 0 113 100" fill="none" xmlns="http://www.w3.org/2000/svg">
<ellipse cx="56.5" cy="50" rx="56.5" ry="50" fill="#F5FBED"/>
<path d="M15.1878 37.4192C14.7378 37.4192 14.5128 37.3192 14.5128 37.1192C14.5128 37.0025 14.5711 36.9108 14.6878 36.8442C14.8044 36.7608 14.9961 36.6942 15.2628 36.6442C15.9294 36.5275 16.4128 36.3275 16.7128 36.0442C17.0128 35.7608 17.1628 35.3442 17.1628 34.7942V24.8942C17.1628 23.8442 17.1294 23.1442 17.0628 22.7942C16.9961 22.4442 16.8711 22.2442 16.6878 22.1942C16.4211 22.1275 15.9044 22.0942 15.1378 22.0942H14.1628C13.7128 22.0942 13.2711 22.1942 12.8378 22.3942C12.4211 22.5942 12.1128 22.8608 11.9128 23.1942C11.4461 23.8942 11.0628 24.2442 10.7628 24.2442C10.5961 24.2442 10.5128 24.1275 10.5128 23.8942C10.5128 23.7608 10.5628 23.5775 10.6628 23.3442C10.9294 22.8275 11.1211 22.3692 11.2378 21.9692C11.3544 21.5525 11.4461 21.0692 11.5128 20.5192C11.5628 20.1192 11.7294 19.9192 12.0128 19.9192C12.0961 19.9192 12.2128 20.0358 12.3628 20.2692C12.5294 20.5025 12.6378 20.6608 12.6878 20.7442C12.8044 20.8942 13.0378 21.0108 13.3878 21.0942C13.7544 21.1775 14.1128 21.2192 14.4628 21.2192L23.4878 21.1942C24.4378 21.1942 25.1461 21.0775 25.6128 20.8442C25.8128 20.7108 25.9461 20.6108 26.0128 20.5442C26.0461 20.5275 26.1211 20.4775 26.2378 20.3942C26.3711 20.2942 26.5211 20.2442 26.6878 20.2442C26.7544 20.2442 26.8044 20.3025 26.8378 20.4192C26.8711 20.5192 26.8878 20.6358 26.8878 20.7692C26.8878 20.8858 26.8628 21.0942 26.8128 21.3942L26.6378 22.1442C26.5878 22.3275 26.5461 22.5108 26.5128 22.6942C26.4794 22.8608 26.4628 23.0525 26.4628 23.2692V23.6192C26.4628 23.8358 26.4211 24.0358 26.3378 24.2192C26.2711 24.3858 26.1794 24.4692 26.0628 24.4692C25.9294 24.4692 25.8211 24.3942 25.7378 24.2442C25.6711 24.0775 25.5878 23.8108 25.4878 23.4442C25.3878 22.9942 25.1544 22.6608 24.7878 22.4442C24.4378 22.2108 23.8878 22.0942 23.1378 22.0942H21.0378C20.6711 22.0942 20.4044 22.1525 20.2378 22.2692C20.0711 22.3692 19.9544 22.6108 19.8878 22.9942C19.8378 23.3775 19.8128 24.0108 19.8128 24.8942V34.7942C19.8128 35.3275 19.9628 35.7358 20.2628 36.0192C20.5794 36.2858 21.0711 36.4942 21.7378 36.6442C21.9878 36.6942 22.1711 36.7608 22.2878 36.8442C22.4044 36.9108 22.4628 37.0025 22.4628 37.1192C22.4628 37.3192 22.2461 37.4192 21.8128 37.4192C21.1961 37.4192 20.6211 37.3942 20.0878 37.3442C19.4211 37.3108 18.9211 37.2942 18.5878 37.2942C18.2044 37.2942 17.6628 37.3108 16.9628 37.3442C16.4128 37.3942 15.8211 37.4192 15.1878 37.4192ZM29.1315 37.4442C28.9315 37.4442 28.7648 37.4108 28.6315 37.3442C28.4982 37.2942 28.4315 37.2108 28.4315 37.0942C28.4315 36.8608 28.6815 36.6692 29.1815 36.5192C29.6648 36.3858 30.0815 36.1775 30.4315 35.8942C30.7982 35.6108 31.0898 35.2108 31.3065 34.6942C32.1732 32.7108 32.9398 30.8692 33.6065 29.1692C34.2898 27.4525 35.0398 25.4608 35.8565 23.1942C36.0898 22.5942 36.2398 22.0442 36.3065 21.5442C36.7898 21.4275 37.1898 21.2858 37.5065 21.1192C37.7065 21.0192 37.8648 20.8692 37.9815 20.6692C38.1148 20.4525 38.1982 20.3192 38.2315 20.2692C38.3315 20.2025 38.4065 20.2192 38.4565 20.3192C38.5065 20.4025 38.5482 20.5025 38.5815 20.6192C38.6148 20.7358 38.6398 20.8358 38.6565 20.9192C39.6565 24.1025 40.9648 28.0858 42.5815 32.8692L43.0815 34.3442C43.3482 35.1108 43.6648 35.6442 44.0315 35.9442C44.3982 36.2442 44.8732 36.4525 45.4565 36.5692C45.7065 36.6192 45.8898 36.6942 46.0065 36.7942C46.1398 36.8942 46.2065 37.0108 46.2065 37.1442C46.2065 37.3275 45.9898 37.4192 45.5565 37.4192L44.0065 37.3692C43.2898 37.3192 42.5815 37.2942 41.8815 37.2942L40.1815 37.3192C39.8482 37.3358 39.4065 37.3442 38.8565 37.3442C38.6565 37.3442 38.4898 37.3192 38.3565 37.2692C38.2398 37.2025 38.1815 37.1192 38.1815 37.0192C38.1815 36.9025 38.2482 36.8025 38.3815 36.7192C38.5315 36.6192 38.7148 36.5525 38.9315 36.5192C39.5148 36.4192 39.9315 36.2692 40.1815 36.0692C40.4315 35.8692 40.5315 35.6025 40.4815 35.2692C40.4648 34.9692 40.3732 34.5192 40.2065 33.9192C40.0565 33.3025 39.9065 32.7025 39.7565 32.1192C39.7232 32.0358 39.6648 31.8442 39.5815 31.5442C39.5482 31.4275 39.4898 31.3525 39.4065 31.3192C39.3232 31.2692 39.1815 31.2442 38.9815 31.2442H34.3565C34.1898 31.2442 34.0482 31.3858 33.9315 31.6692C33.7648 32.1692 33.5732 32.7942 33.3565 33.5442C33.1398 34.2775 33.0148 34.7608 32.9815 34.9942C32.8815 35.7608 33.3732 36.2775 34.4565 36.5442C34.9565 36.6608 35.2065 36.8275 35.2065 37.0442C35.2065 37.2442 34.9815 37.3442 34.5315 37.3442C34.1148 37.3442 33.7815 37.3358 33.5315 37.3192L32.1065 37.2942C31.8565 37.2942 31.5648 37.3025 31.2315 37.3192C30.8982 37.3358 30.6482 37.3525 30.4815 37.3692C30.0148 37.4192 29.5648 37.4442 29.1315 37.4442ZM38.7065 30.2192C38.8065 30.2192 38.8898 30.2108 38.9565 30.1942C39.0232 30.1775 39.0565 30.1442 39.0565 30.0942C39.0565 30.0775 39.0398 29.9858 39.0065 29.8192L37.1565 23.8942C37.0732 23.6275 37.0065 23.4942 36.9565 23.4942C36.9232 23.4942 36.8648 23.6192 36.7815 23.8692L34.6065 29.8192L34.5565 30.0192C34.5565 30.1025 34.5982 30.1608 34.6815 30.1942C34.7648 30.2108 34.8898 30.2192 35.0565 30.2192H38.7065ZM55.0352 37.6942C53.6019 37.6942 52.3769 37.3108 51.3602 36.5442C51.1435 36.3608 51.0185 36.1858 50.9852 36.0192C50.8019 35.4858 50.6935 34.4942 50.6602 33.0442C50.6602 32.9275 50.7019 32.8442 50.7852 32.7942C50.8852 32.7275 51.0102 32.6942 51.1602 32.6942C51.3935 32.6942 51.5435 32.7942 51.6102 32.9942C51.9435 34.2108 52.4435 35.1442 53.1102 35.7942C53.7935 36.4442 54.5519 36.7692 55.3852 36.7692C56.2185 36.7692 56.8852 36.5025 57.3852 35.9692C57.9019 35.4358 58.1602 34.7608 58.1602 33.9442C58.1602 33.3442 58.0519 32.8442 57.8352 32.4442C57.6352 32.0275 57.3519 31.6775 56.9852 31.3942C56.6185 31.0942 56.0685 30.7275 55.3352 30.2942C54.3352 29.6942 53.5769 29.2108 53.0602 28.8442C52.5602 28.4775 52.1185 28.0108 51.7352 27.4442C51.3519 26.8608 51.1602 26.1692 51.1602 25.3692C51.1602 24.4858 51.3769 23.6942 51.8102 22.9942C52.2435 22.2775 52.8685 21.7192 53.6852 21.3192C54.5185 20.9192 55.4935 20.7192 56.6102 20.7192C57.5769 20.7192 58.5185 20.9108 59.4352 21.2942C59.7185 21.4108 59.9102 21.6358 60.0102 21.9692C60.2935 23.1025 60.4352 23.9858 60.4352 24.6192C60.4352 24.7025 60.3935 24.7692 60.3102 24.8192C60.2435 24.8692 60.1519 24.8942 60.0352 24.8942C59.8852 24.8942 59.7435 24.8608 59.6102 24.7942C59.4769 24.7275 59.3935 24.6442 59.3602 24.5442C59.0269 23.5942 58.6019 22.8858 58.0852 22.4192C57.5852 21.9358 56.9769 21.6942 56.2602 21.6942C55.4435 21.6942 54.7852 21.9108 54.2852 22.3442C53.8019 22.7775 53.5602 23.4442 53.5602 24.3442C53.5602 24.9608 53.8352 25.5192 54.3852 26.0192C54.9352 26.5025 55.8185 27.1108 57.0352 27.8442C58.2519 28.5942 59.1602 29.3275 59.7602 30.0442C60.3602 30.7442 60.6602 31.6442 60.6602 32.7442C60.6602 34.2942 60.1519 35.5108 59.1352 36.3942C58.1185 37.2608 56.7519 37.6942 55.0352 37.6942ZM70.7004 37.4192C70.2504 37.4192 70.0254 37.3192 70.0254 37.1192C70.0254 37.0025 70.0838 36.9108 70.2004 36.8442C70.3171 36.7608 70.5088 36.6942 70.7754 36.6442C71.4421 36.5275 71.9254 36.3275 72.2254 36.0442C72.5254 35.7608 72.6754 35.3442 72.6754 34.7942V24.8942C72.6754 23.8442 72.6421 23.1442 72.5754 22.7942C72.5088 22.4442 72.3838 22.2442 72.2004 22.1942C71.9338 22.1275 71.4171 22.0942 70.6504 22.0942H69.6754C69.2254 22.0942 68.7838 22.1942 68.3504 22.3942C67.9338 22.5942 67.6254 22.8608 67.4254 23.1942C66.9588 23.8942 66.5754 24.2442 66.2754 24.2442C66.1088 24.2442 66.0254 24.1275 66.0254 23.8942C66.0254 23.7608 66.0754 23.5775 66.1754 23.3442C66.4421 22.8275 66.6338 22.3692 66.7504 21.9692C66.8671 21.5525 66.9588 21.0692 67.0254 20.5192C67.0754 20.1192 67.2421 19.9192 67.5254 19.9192C67.6088 19.9192 67.7254 20.0358 67.8754 20.2692C68.0421 20.5025 68.1504 20.6608 68.2004 20.7442C68.3171 20.8942 68.5504 21.0108 68.9004 21.0942C69.2671 21.1775 69.6254 21.2192 69.9754 21.2192L79.0004 21.1942C79.9504 21.1942 80.6588 21.0775 81.1254 20.8442C81.3254 20.7108 81.4588 20.6108 81.5254 20.5442C81.5588 20.5275 81.6338 20.4775 81.7504 20.3942C81.8838 20.2942 82.0338 20.2442 82.2004 20.2442C82.2671 20.2442 82.3171 20.3025 82.3504 20.4192C82.3838 20.5192 82.4004 20.6358 82.4004 20.7692C82.4004 20.8858 82.3754 21.0942 82.3254 21.3942L82.1504 22.1442C82.1004 22.3275 82.0588 22.5108 82.0254 22.6942C81.9921 22.8608 81.9754 23.0525 81.9754 23.2692V23.6192C81.9754 23.8358 81.9338 24.0358 81.8504 24.2192C81.7838 24.3858 81.6921 24.4692 81.5754 24.4692C81.4421 24.4692 81.3338 24.3942 81.2504 24.2442C81.1838 24.0775 81.1004 23.8108 81.0004 23.4442C80.9004 22.9942 80.6671 22.6608 80.3004 22.4442C79.9504 22.2108 79.4004 22.0942 78.6504 22.0942H76.5504C76.1838 22.0942 75.9171 22.1525 75.7504 22.2692C75.5838 22.3692 75.4671 22.6108 75.4004 22.9942C75.3504 23.3775 75.3254 24.0108 75.3254 24.8942V34.7942C75.3254 35.3275 75.4754 35.7358 75.7754 36.0192C76.0921 36.2858 76.5838 36.4942 77.2504 36.6442C77.5004 36.6942 77.6838 36.7608 77.8004 36.8442C77.9171 36.9108 77.9754 37.0025 77.9754 37.1192C77.9754 37.3192 77.7588 37.4192 77.3254 37.4192C76.7088 37.4192 76.1338 37.3942 75.6004 37.3442C74.9338 37.3108 74.4338 37.2942 74.1004 37.2942C73.7171 37.2942 73.1754 37.3108 72.4754 37.3442C71.9254 37.3942 71.3338 37.4192 70.7004 37.4192ZM87.5682 37.4442C87.1349 37.4442 86.9182 37.3442 86.9182 37.1442C86.9182 36.9275 87.1599 36.7692 87.6432 36.6692C88.2766 36.5358 88.7266 36.3442 88.9932 36.0942C89.2599 35.8275 89.3932 35.4192 89.3932 34.8692V23.5692C89.3932 23.0025 89.2766 22.6025 89.0432 22.3692C88.8099 22.1192 88.3849 21.9275 87.7682 21.7942C87.2849 21.6942 87.0432 21.5275 87.0432 21.2942C87.0432 21.1942 87.1016 21.1192 87.2182 21.0692C87.3349 21.0025 87.4932 20.9692 87.6932 20.9692C88.2766 20.9692 89.0016 20.9858 89.8682 21.0192C90.7016 21.0525 91.3682 21.0692 91.8682 21.0692C92.9849 21.0692 94.3599 21.0525 95.9932 21.0192C96.5432 21.0192 97.0099 21.0108 97.3932 20.9942C97.7932 20.9608 98.0182 20.9442 98.0682 20.9442C98.1849 20.9442 98.2932 20.9692 98.3932 21.0192C98.4932 21.0692 98.5516 21.1442 98.5682 21.2442L98.6932 21.9942C98.8766 22.9442 98.9682 23.6275 98.9682 24.0442C98.9682 24.1942 98.9266 24.3025 98.8432 24.3692C98.7766 24.4358 98.7016 24.4692 98.6182 24.4692C98.4682 24.4692 98.3516 24.3692 98.2682 24.1692C98.2516 24.1025 98.1932 23.9442 98.0932 23.6942C98.0099 23.4275 97.9266 23.2108 97.8432 23.0442C97.7599 22.8775 97.6766 22.7442 97.5932 22.6442C97.1432 22.1775 96.5766 21.9442 95.8932 21.9442H93.0932C92.8599 21.9442 92.6266 22.0358 92.3932 22.2192C92.1599 22.3858 92.0432 22.5942 92.0432 22.8442V27.9442C92.0432 28.1108 92.0932 28.2442 92.1932 28.3442C92.2932 28.4442 92.4182 28.4942 92.5682 28.4942H94.9182C95.3682 28.4942 95.6849 28.3942 95.8682 28.1942C96.0682 27.9942 96.2349 27.6525 96.3682 27.1692C96.4849 26.8358 96.6432 26.6692 96.8432 26.6692C96.9266 26.6692 97.0016 26.7108 97.0682 26.7942C97.1349 26.8775 97.1682 26.9858 97.1682 27.1192C97.1016 28.0525 97.0682 28.6608 97.0682 28.9442C97.0682 29.5608 97.0932 30.2192 97.1432 30.9192V31.0192C97.1432 31.2858 97.0682 31.4192 96.9182 31.4192C96.6516 31.4192 96.4516 31.1775 96.3182 30.6942C96.2016 30.2442 96.0516 29.9192 95.8682 29.7192C95.7016 29.5025 95.4599 29.3942 95.1432 29.3942H92.8182C92.5349 29.3942 92.3349 29.4442 92.2182 29.5442C92.1016 29.6275 92.0432 29.7942 92.0432 30.0442V34.8192C92.0432 35.3858 92.1599 35.7858 92.3932 36.0192C92.6432 36.2525 93.0349 36.3692 93.5682 36.3692H95.5432C96.5099 36.3692 97.2182 36.2108 97.6682 35.8942C97.9349 35.7108 98.1766 35.4692 98.3932 35.1692C98.6099 34.8692 98.8432 34.4608 99.0932 33.9442C99.2266 33.7275 99.3682 33.6275 99.5182 33.6442C99.7016 33.6442 99.7932 33.7775 99.7932 34.0442C99.7932 34.3108 99.7099 34.7525 99.5432 35.3692C99.3766 35.9692 99.2016 36.5275 99.0182 37.0442C98.9016 37.3108 98.7599 37.4442 98.5932 37.4442C97.4266 37.4442 96.1766 37.4192 94.8432 37.3692C94.3932 37.3525 93.8099 37.3358 93.0932 37.3192C92.3932 37.3025 91.5766 37.2942 90.6432 37.2942C90.1766 37.2942 89.7016 37.3192 89.2182 37.3692C88.2682 37.4192 87.7182 37.4442 87.5682 37.4442Z" fill="#21512E"/>
<path d="M15.1878 37.4192C14.7378 37.4192 14.5128 37.3192 14.5128 37.1192C14.5128 37.0025 14.5711 36.9108 14.6878 36.8442C14.8044 36.7608 14.9961 36.6942 15.2628 36.6442C15.9294 36.5275 16.4128 36.3275 16.7128 36.0442C17.0128 35.7608 17.1628 35.3442 17.1628 34.7942V24.8942C17.1628 23.8442 17.1294 23.1442 17.0628 22.7942C16.9961 22.4442 16.8711 22.2442 16.6878 22.1942C16.4211 22.1275 15.9044 22.0942 15.1378 22.0942H14.1628C13.7128 22.0942 13.2711 22.1942 12.8378 22.3942C12.4211 22.5942 12.1128 22.8608 11.9128 23.1942C11.4461 23.8942 11.0628 24.2442 10.7628 24.2442C10.5961 24.2442 10.5128 24.1275 10.5128 23.8942C10.5128 23.7608 10.5628 23.5775 10.6628 23.3442C10.9294 22.8275 11.1211 22.3692 11.2378 21.9692C11.3544 21.5525 11.4461 21.0692 11.5128 20.5192C11.5628 20.1192 11.7294 19.9192 12.0128 19.9192C12.0961 19.9192 12.2128 20.0358 12.3628 20.2692C12.5294 20.5025 12.6378 20.6608 12.6878 20.7442C12.8044 20.8942 13.0378 21.0108 13.3878 21.0942C13.7544 21.1775 14.1128 21.2192 14.4628 21.2192L23.4878 21.1942C24.4378 21.1942 25.1461 21.0775 25.6128 20.8442C25.8128 20.7108 25.9461 20.6108 26.0128 20.5442C26.0461 20.5275 26.1211 20.4775 26.2378 20.3942C26.3711 20.2942 26.5211 20.2442 26.6878 20.2442C26.7544 20.2442 26.8044 20.3025 26.8378 20.4192C26.8711 20.5192 26.8878 20.6358 26.8878 20.7692C26.8878 20.8858 26.8628 21.0942 26.8128 21.3942L26.6378 22.1442C26.5878 22.3275 26.5461 22.5108 26.5128 22.6942C26.4794 22.8608 26.4628 23.0525 26.4628 23.2692V23.6192C26.4628 23.8358 26.4211 24.0358 26.3378 24.2192C26.2711 24.3858 26.1794 24.4692 26.0628 24.4692C25.9294 24.4692 25.8211 24.3942 25.7378 24.2442C25.6711 24.0775 25.5878 23.8108 25.4878 23.4442C25.3878 22.9942 25.1544 22.6608 24.7878 22.4442C24.4378 22.2108 23.8878 22.0942 23.1378 22.0942H21.0378C20.6711 22.0942 20.4044 22.1525 20.2378 22.2692C20.0711 22.3692 19.9544 22.6108 19.8878 22.9942C19.8378 23.3775 19.8128 24.0108 19.8128 24.8942V34.7942C19.8128 35.3275 19.9628 35.7358 20.2628 36.0192C20.5794 36.2858 21.0711 36.4942 21.7378 36.6442C21.9878 36.6942 22.1711 36.7608 22.2878 36.8442C22.4044 36.9108 22.4628 37.0025 22.4628 37.1192C22.4628 37.3192 22.2461 37.4192 21.8128 37.4192C21.1961 37.4192 20.6211 37.3942 20.0878 37.3442C19.4211 37.3108 18.9211 37.2942 18.5878 37.2942C18.2044 37.2942 17.6628 37.3108 16.9628 37.3442C16.4128 37.3942 15.8211 37.4192 15.1878 37.4192ZM29.1315 37.4442C28.9315 37.4442 28.7648 37.4108 28.6315 37.3442C28.4982 37.2942 28.4315 37.2108 28.4315 37.0942C28.4315 36.8608 28.6815 36.6692 29.1815 36.5192C29.6648 36.3858 30.0815 36.1775 30.4315 35.8942C30.7982 35.6108 31.0898 35.2108 31.3065 34.6942C32.1732 32.7108 32.9398 30.8692 33.6065 29.1692C34.2898 27.4525 35.0398 25.4608 35.8565 23.1942C36.0898 22.5942 36.2398 22.0442 36.3065 21.5442C36.7898 21.4275 37.1898 21.2858 37.5065 21.1192C37.7065 21.0192 37.8648 20.8692 37.9815 20.6692C38.1148 20.4525 38.1982 20.3192 38.2315 20.2692C38.3315 20.2025 38.4065 20.2192 38.4565 20.3192C38.5065 20.4025 38.5482 20.5025 38.5815 20.6192C38.6148 20.7358 38.6398 20.8358 38.6565 20.9192C39.6565 24.1025 40.9648 28.0858 42.5815 32.8692L43.0815 34.3442C43.3482 35.1108 43.6648 35.6442 44.0315 35.9442C44.3982 36.2442 44.8732 36.4525 45.4565 36.5692C45.7065 36.6192 45.8898 36.6942 46.0065 36.7942C46.1398 36.8942 46.2065 37.0108 46.2065 37.1442C46.2065 37.3275 45.9898 37.4192 45.5565 37.4192L44.0065 37.3692C43.2898 37.3192 42.5815 37.2942 41.8815 37.2942L40.1815 37.3192C39.8482 37.3358 39.4065 37.3442 38.8565 37.3442C38.6565 37.3442 38.4898 37.3192 38.3565 37.2692C38.2398 37.2025 38.1815 37.1192 38.1815 37.0192C38.1815 36.9025 38.2482 36.8025 38.3815 36.7192C38.5315 36.6192 38.7148 36.5525 38.9315 36.5192C39.5148 36.4192 39.9315 36.2692 40.1815 36.0692C40.4315 35.8692 40.5315 35.6025 40.4815 35.2692C40.4648 34.9692 40.3732 34.5192 40.2065 33.9192C40.0565 33.3025 39.9065 32.7025 39.7565 32.1192C39.7232 32.0358 39.6648 31.8442 39.5815 31.5442C39.5482 31.4275 39.4898 31.3525 39.4065 31.3192C39.3232 31.2692 39.1815 31.2442 38.9815 31.2442H34.3565C34.1898 31.2442 34.0482 31.3858 33.9315 31.6692C33.7648 32.1692 33.5732 32.7942 33.3565 33.5442C33.1398 34.2775 33.0148 34.7608 32.9815 34.9942C32.8815 35.7608 33.3732 36.2775 34.4565 36.5442C34.9565 36.6608 35.2065 36.8275 35.2065 37.0442C35.2065 37.2442 34.9815 37.3442 34.5315 37.3442C34.1148 37.3442 33.7815 37.3358 33.5315 37.3192L32.1065 37.2942C31.8565 37.2942 31.5648 37.3025 31.2315 37.3192C30.8982 37.3358 30.6482 37.3525 30.4815 37.3692C30.0148 37.4192 29.5648 37.4442 29.1315 37.4442ZM38.7065 30.2192C38.8065 30.2192 38.8898 30.2108 38.9565 30.1942C39.0232 30.1775 39.0565 30.1442 39.0565 30.0942C39.0565 30.0775 39.0398 29.9858 39.0065 29.8192L37.1565 23.8942C37.0732 23.6275 37.0065 23.4942 36.9565 23.4942C36.9232 23.4942 36.8648 23.6192 36.7815 23.8692L34.6065 29.8192L34.5565 30.0192C34.5565 30.1025 34.5982 30.1608 34.6815 30.1942C34.7648 30.2108 34.8898 30.2192 35.0565 30.2192H38.7065ZM55.0352 37.6942C53.6019 37.6942 52.3769 37.3108 51.3602 36.5442C51.1435 36.3608 51.0185 36.1858 50.9852 36.0192C50.8019 35.4858 50.6935 34.4942 50.6602 33.0442C50.6602 32.9275 50.7019 32.8442 50.7852 32.7942C50.8852 32.7275 51.0102 32.6942 51.1602 32.6942C51.3935 32.6942 51.5435 32.7942 51.6102 32.9942C51.9435 34.2108 52.4435 35.1442 53.1102 35.7942C53.7935 36.4442 54.5519 36.7692 55.3852 36.7692C56.2185 36.7692 56.8852 36.5025 57.3852 35.9692C57.9019 35.4358 58.1602 34.7608 58.1602 33.9442C58.1602 33.3442 58.0519 32.8442 57.8352 32.4442C57.6352 32.0275 57.3519 31.6775 56.9852 31.3942C56.6185 31.0942 56.0685 30.7275 55.3352 30.2942C54.3352 29.6942 53.5769 29.2108 53.0602 28.8442C52.5602 28.4775 52.1185 28.0108 51.7352 27.4442C51.3519 26.8608 51.1602 26.1692 51.1602 25.3692C51.1602 24.4858 51.3769 23.6942 51.8102 22.9942C52.2435 22.2775 52.8685 21.7192 53.6852 21.3192C54.5185 20.9192 55.4935 20.7192 56.6102 20.7192C57.5769 20.7192 58.5185 20.9108 59.4352 21.2942C59.7185 21.4108 59.9102 21.6358 60.0102 21.9692C60.2935 23.1025 60.4352 23.9858 60.4352 24.6192C60.4352 24.7025 60.3935 24.7692 60.3102 24.8192C60.2435 24.8692 60.1519 24.8942 60.0352 24.8942C59.8852 24.8942 59.7435 24.8608 59.6102 24.7942C59.4769 24.7275 59.3935 24.6442 59.3602 24.5442C59.0269 23.5942 58.6019 22.8858 58.0852 22.4192C57.5852 21.9358 56.9769 21.6942 56.2602 21.6942C55.4435 21.6942 54.7852 21.9108 54.2852 22.3442C53.8019 22.7775 53.5602 23.4442 53.5602 24.3442C53.5602 24.9608 53.8352 25.5192 54.3852 26.0192C54.9352 26.5025 55.8185 27.1108 57.0352 27.8442C58.2519 28.5942 59.1602 29.3275 59.7602 30.0442C60.3602 30.7442 60.6602 31.6442 60.6602 32.7442C60.6602 34.2942 60.1519 35.5108 59.1352 36.3942C58.1185 37.2608 56.7519 37.6942 55.0352 37.6942ZM70.7004 37.4192C70.2504 37.4192 70.0254 37.3192 70.0254 37.1192C70.0254 37.0025 70.0838 36.9108 70.2004 36.8442C70.3171 36.7608 70.5088 36.6942 70.7754 36.6442C71.4421 36.5275 71.9254 36.3275 72.2254 36.0442C72.5254 35.7608 72.6754 35.3442 72.6754 34.7942V24.8942C72.6754 23.8442 72.6421 23.1442 72.5754 22.7942C72.5088 22.4442 72.3838 22.2442 72.2004 22.1942C71.9338 22.1275 71.4171 22.0942 70.6504 22.0942H69.6754C69.2254 22.0942 68.7838 22.1942 68.3504 22.3942C67.9338 22.5942 67.6254 22.8608 67.4254 23.1942C66.9588 23.8942 66.5754 24.2442 66.2754 24.2442C66.1088 24.2442 66.0254 24.1275 66.0254 23.8942C66.0254 23.7608 66.0754 23.5775 66.1754 23.3442C66.4421 22.8275 66.6338 22.3692 66.7504 21.9692C66.8671 21.5525 66.9588 21.0692 67.0254 20.5192C67.0754 20.1192 67.2421 19.9192 67.5254 19.9192C67.6088 19.9192 67.7254 20.0358 67.8754 20.2692C68.0421 20.5025 68.1504 20.6608 68.2004 20.7442C68.3171 20.8942 68.5504 21.0108 68.9004 21.0942C69.2671 21.1775 69.6254 21.2192 69.9754 21.2192L79.0004 21.1942C79.9504 21.1942 80.6588 21.0775 81.1254 20.8442C81.3254 20.7108 81.4588 20.6108 81.5254 20.5442C81.5588 20.5275 81.6338 20.4775 81.7504 20.3942C81.8838 20.2942 82.0338 20.2442 82.2004 20.2442C82.2671 20.2442 82.3171 20.3025 82.3504 20.4192C82.3838 20.5192 82.4004 20.6358 82.4004 20.7692C82.4004 20.8858 82.3754 21.0942 82.3254 21.3942L82.1504 22.1442C82.1004 22.3275 82.0588 22.5108 82.0254 22.6942C81.9921 22.8608 81.9754 23.0525 81.9754 23.2692V23.6192C81.9754 23.8358 81.9338 24.0358 81.8504 24.2192C81.7838 24.3858 81.6921 24.4692 81.5754 24.4692C81.4421 24.4692 81.3338 24.3942 81.2504 24.2442C81.1838 24.0775 81.1004 23.8108 81.0004 23.4442C80.9004 22.9942 80.6671 22.6608 80.3004 22.4442C79.9504 22.2108 79.4004 22.0942 78.6504 22.0942H76.5504C76.1838 22.0942 75.9171 22.1525 75.7504 22.2692C75.5838 22.3692 75.4671 22.6108 75.4004 22.9942C75.3504 23.3775 75.3254 24.0108 75.3254 24.8942V34.7942C75.3254 35.3275 75.4754 35.7358 75.7754 36.0192C76.0921 36.2858 76.5838 36.4942 77.2504 36.6442C77.5004 36.6942 77.6838 36.7608 77.8004 36.8442C77.9171 36.9108 77.9754 37.0025 77.9754 37.1192C77.9754 37.3192 77.7588 37.4192 77.3254 37.4192C76.7088 37.4192 76.1338 37.3942 75.6004 37.3442C74.9338 37.3108 74.4338 37.2942 74.1004 37.2942C73.7171 37.2942 73.1754 37.3108 72.4754 37.3442C71.9254 37.3942 71.3338 37.4192 70.7004 37.4192ZM87.5682 37.4442C87.1349 37.4442 86.9182 37.3442 86.9182 37.1442C86.9182 36.9275 87.1599 36.7692 87.6432 36.6692C88.2766 36.5358 88.7266 36.3442 88.9932 36.0942C89.2599 35.8275 89.3932 35.4192 89.3932 34.8692V23.5692C89.3932 23.0025 89.2766 22.6025 89.0432 22.3692C88.8099 22.1192 88.3849 21.9275 87.7682 21.7942C87.2849 21.6942 87.0432 21.5275 87.0432 21.2942C87.0432 21.1942 87.1016 21.1192 87.2182 21.0692C87.3349 21.0025 87.4932 20.9692 87.6932 20.9692C88.2766 20.9692 89.0016 20.9858 89.8682 21.0192C90.7016 21.0525 91.3682 21.0692 91.8682 21.0692C92.9849 21.0692 94.3599 21.0525 95.9932 21.0192C96.5432 21.0192 97.0099 21.0108 97.3932 20.9942C97.7932 20.9608 98.0182 20.9442 98.0682 20.9442C98.1849 20.9442 98.2932 20.9692 98.3932 21.0192C98.4932 21.0692 98.5516 21.1442 98.5682 21.2442L98.6932 21.9942C98.8766 22.9442 98.9682 23.6275 98.9682 24.0442C98.9682 24.1942 98.9266 24.3025 98.8432 24.3692C98.7766 24.4358 98.7016 24.4692 98.6182 24.4692C98.4682 24.4692 98.3516 24.3692 98.2682 24.1692C98.2516 24.1025 98.1932 23.9442 98.0932 23.6942C98.0099 23.4275 97.9266 23.2108 97.8432 23.0442C97.7599 22.8775 97.6766 22.7442 97.5932 22.6442C97.1432 22.1775 96.5766 21.9442 95.8932 21.9442H93.0932C92.8599 21.9442 92.6266 22.0358 92.3932 22.2192C92.1599 22.3858 92.0432 22.5942 92.0432 22.8442V27.9442C92.0432 28.1108 92.0932 28.2442 92.1932 28.3442C92.2932 28.4442 92.4182 28.4942 92.5682 28.4942H94.9182C95.3682 28.4942 95.6849 28.3942 95.8682 28.1942C96.0682 27.9942 96.2349 27.6525 96.3682 27.1692C96.4849 26.8358 96.6432 26.6692 96.8432 26.6692C96.9266 26.6692 97.0016 26.7108 97.0682 26.7942C97.1349 26.8775 97.1682 26.9858 97.1682 27.1192C97.1016 28.0525 97.0682 28.6608 97.0682 28.9442C97.0682 29.5608 97.0932 30.2192 97.1432 30.9192V31.0192C97.1432 31.2858 97.0682 31.4192 96.9182 31.4192C96.6516 31.4192 96.4516 31.1775 96.3182 30.6942C96.2016 30.2442 96.0516 29.9192 95.8682 29.7192C95.7016 29.5025 95.4599 29.3942 95.1432 29.3942H92.8182C92.5349 29.3942 92.3349 29.4442 92.2182 29.5442C92.1016 29.6275 92.0432 29.7942 92.0432 30.0442V34.8192C92.0432 35.3858 92.1599 35.7858 92.3932 36.0192C92.6432 36.2525 93.0349 36.3692 93.5682 36.3692H95.5432C96.5099 36.3692 97.2182 36.2108 97.6682 35.8942C97.9349 35.7108 98.1766 35.4692 98.3932 35.1692C98.6099 34.8692 98.8432 34.4608 99.0932 33.9442C99.2266 33.7275 99.3682 33.6275 99.5182 33.6442C99.7016 33.6442 99.7932 33.7775 99.7932 34.0442C99.7932 34.3108 99.7099 34.7525 99.5432 35.3692C99.3766 35.9692 99.2016 36.5275 99.0182 37.0442C98.9016 37.3108 98.7599 37.4442 98.5932 37.4442C97.4266 37.4442 96.1766 37.4192 94.8432 37.3692C94.3932 37.3525 93.8099 37.3358 93.0932 37.3192C92.3932 37.3025 91.5766 37.2942 90.6432 37.2942C90.1766 37.2942 89.7016 37.3192 89.2182 37.3692C88.2682 37.4192 87.7182 37.4442 87.5682 37.4442Z" fill="url(#paint0_linear)"/>
<path d="M45.0307 61.1112C44.2807 61.1112 43.764 60.9445 43.4807 60.6112C43.1974 60.2778 43.0557 59.8528 43.0557 59.3362C43.0557 58.8528 43.1557 58.2778 43.3557 57.6112C43.5557 56.9445 43.764 56.3028 43.9807 55.6862C44.264 54.8695 44.6057 53.9112 45.0057 52.8112C45.4057 51.7112 45.8307 50.5612 46.2807 49.3612C46.7474 48.1612 47.214 46.9778 47.6807 45.8112C48.164 44.6445 48.6307 43.5862 49.0807 42.6362C47.9307 42.6528 46.964 42.6778 46.1807 42.7112C45.414 42.7445 44.7224 42.7945 44.1057 42.8612C43.489 42.9112 42.814 43.0028 42.0807 43.1362C42.1307 42.5695 42.4224 42.1278 42.9557 41.8112C43.489 41.4945 44.2057 41.2695 45.1057 41.1362C46.0057 41.0028 47.0307 40.9362 48.1807 40.9362C49.3307 40.9362 50.3557 40.9862 51.2557 41.0862C52.1724 41.1695 53.0307 41.2528 53.8307 41.3362C54.6307 41.4195 55.4307 41.4695 56.2307 41.4862C55.664 42.0028 55.014 42.3278 54.2807 42.4612C53.5474 42.5945 52.7724 42.6612 51.9557 42.6612C51.6724 42.6612 51.3807 42.6612 51.0807 42.6612C50.7807 42.6445 50.4807 42.6362 50.1807 42.6362C49.6474 43.9695 49.0307 45.6528 48.3307 47.6862C47.6474 49.7195 46.9557 52.0112 46.2557 54.5612C45.889 55.8778 45.589 57.0028 45.3557 57.9362C45.1224 58.8528 45.0057 59.7278 45.0057 60.5612C45.0057 60.6445 45.0057 60.7362 45.0057 60.8362C45.0057 60.9362 45.014 61.0278 45.0307 61.1112ZM52.7856 59.8862C52.4689 59.8862 52.2189 59.6195 52.0356 59.0862C51.8523 58.5528 51.7606 57.9528 51.7606 57.2862C51.7606 56.4862 51.8939 55.5362 52.1606 54.4362C52.4273 53.3362 52.7773 52.1778 53.2106 50.9612C53.6439 49.7445 54.1273 48.5528 54.6606 47.3862C55.2106 46.2195 55.7689 45.1612 56.3356 44.2112C56.9023 43.2612 57.4356 42.5028 57.9356 41.9362C58.4356 41.3695 58.8689 41.0862 59.2356 41.0862C59.5356 41.0862 59.7439 41.2695 59.8606 41.6362C59.9939 41.9862 60.0606 42.3278 60.0606 42.6612C60.0606 43.1278 59.9523 43.6945 59.7356 44.3612C59.5356 45.0278 59.2523 45.7445 58.8856 46.5112C58.5189 47.2612 58.0939 48.0028 57.6106 48.7362C57.1273 49.4695 56.6023 50.1445 56.0356 50.7612C55.4689 51.3612 54.8939 51.8362 54.3106 52.1862C54.1106 52.6695 53.9356 53.2112 53.7856 53.8112C53.6523 54.4112 53.5523 55.0028 53.4856 55.5862C53.4189 56.1528 53.3856 56.6612 53.3856 57.1112C53.3856 57.2945 53.3856 57.4528 53.3856 57.5862C53.4023 57.7195 53.4189 57.8445 53.4356 57.9612C53.8356 56.8112 54.2856 55.7445 54.7856 54.7612C55.2856 53.7778 55.8439 52.9862 56.4606 52.3862C57.0939 51.7862 57.7773 51.4862 58.5106 51.4862C59.1939 51.4862 59.6773 51.7278 59.9606 52.2112C60.2606 52.6778 60.4106 53.1862 60.4106 53.7362C60.4106 54.2528 60.3189 54.7528 60.1356 55.2362C59.9689 55.7195 59.7939 56.1862 59.6106 56.6362C59.4273 57.0862 59.3356 57.5195 59.3356 57.9362C59.3356 58.2695 59.4023 58.5112 59.5356 58.6612C59.6856 58.8112 59.8689 58.8862 60.0856 58.8862C60.4689 58.8862 60.8939 58.7028 61.3606 58.3362C61.8439 57.9695 62.3189 57.4862 62.7856 56.8862C63.2523 56.2695 63.6523 55.6028 63.9856 54.8862L64.3106 55.1862C63.9606 56.0028 63.5356 56.7445 63.0356 57.4112C62.5356 58.0612 61.9856 58.5778 61.3856 58.9612C60.7856 59.3445 60.1606 59.5362 59.5106 59.5362C58.9439 59.5362 58.5106 59.3862 58.2106 59.0862C57.9273 58.7862 57.7856 58.4112 57.7856 57.9612C57.7856 57.6112 57.8523 57.2195 57.9856 56.7862C58.1189 56.3528 58.2439 55.9112 58.3606 55.4612C58.4939 55.0112 58.5606 54.5862 58.5606 54.1862C58.5606 53.7528 58.4689 53.4445 58.2856 53.2612C58.1023 53.0778 57.8773 52.9862 57.6106 52.9862C57.1939 52.9862 56.8189 53.1528 56.4856 53.4862C56.1523 53.8195 55.8439 54.2528 55.5606 54.7862C55.2939 55.3028 55.0356 55.8528 54.7856 56.4362C54.5523 57.0195 54.3273 57.5778 54.1106 58.1112C53.8939 58.6278 53.6773 59.0528 53.4606 59.3862C53.2439 59.7195 53.0189 59.8862 52.7856 59.8862ZM54.6356 51.2112C55.1023 50.8445 55.5523 50.3778 55.9856 49.8112C56.4356 49.2445 56.8523 48.6445 57.2356 48.0112C57.6189 47.3612 57.9606 46.7278 58.2606 46.1112C58.5606 45.4945 58.7939 44.9362 58.9606 44.4362C59.1273 43.9362 59.2106 43.5612 59.2106 43.3112C59.2106 43.1778 59.1773 43.1112 59.1106 43.1112C58.9939 43.1112 58.7523 43.3445 58.3856 43.8112C58.0356 44.2612 57.6273 44.8695 57.1606 45.6362C56.6939 46.4028 56.2356 47.2695 55.7856 48.2362C55.3356 49.2028 54.9523 50.1945 54.6356 51.2112ZM66.2002 60.0362C65.1836 60.0362 64.4169 59.7528 63.9002 59.1862C63.4002 58.6362 63.1502 57.9528 63.1502 57.1362C63.1502 56.3862 63.3336 55.5945 63.7002 54.7612C64.0836 53.9278 64.5836 53.1445 65.2002 52.4112C65.8336 51.6778 66.5252 51.0862 67.2752 50.6362C68.0252 50.1695 68.7669 49.9362 69.5002 49.9362C69.8836 49.9362 70.2336 50.0362 70.5502 50.2362C70.8836 50.4362 71.0502 50.8445 71.0502 51.4612C71.0502 52.0945 70.8586 52.6945 70.4752 53.2612C70.1086 53.8112 69.6169 54.3028 69.0002 54.7362C68.4002 55.1695 67.7336 55.5278 67.0002 55.8112C66.2836 56.0778 65.5669 56.2445 64.8502 56.3112C64.8169 56.4778 64.7919 56.6362 64.7752 56.7862C64.7586 56.9362 64.7502 57.0778 64.7502 57.2112C64.7502 57.7278 64.8836 58.2112 65.1502 58.6612C65.4336 59.0945 65.9586 59.3112 66.7252 59.3112C67.4419 59.3112 68.1502 59.1112 68.8502 58.7112C69.5502 58.2945 70.2002 57.7528 70.8002 57.0862C71.4002 56.4195 71.9086 55.6862 72.3252 54.8862L72.6252 55.1112C72.1752 56.1112 71.6002 56.9778 70.9002 57.7112C70.2169 58.4445 69.4669 59.0112 68.6502 59.4112C67.8502 59.8278 67.0336 60.0362 66.2002 60.0362ZM64.9752 55.8362C65.4252 55.6862 65.9336 55.4695 66.5002 55.1862C67.0669 54.8862 67.6086 54.5362 68.1252 54.1362C68.6586 53.7362 69.0919 53.2945 69.4252 52.8112C69.7752 52.3278 69.9502 51.8195 69.9502 51.2862C69.9502 51.1028 69.9169 50.9612 69.8502 50.8612C69.7836 50.7612 69.6419 50.7112 69.4252 50.7112C69.0252 50.7112 68.6002 50.8695 68.1502 51.1862C67.7002 51.4862 67.2669 51.8862 66.8502 52.3862C66.4336 52.8862 66.0586 53.4362 65.7252 54.0362C65.3919 54.6362 65.1419 55.2362 64.9752 55.8362Z" fill="#5E4F33"/>
<path d="M45.0307 61.1112C44.2807 61.1112 43.764 60.9445 43.4807 60.6112C43.1974 60.2778 43.0557 59.8528 43.0557 59.3362C43.0557 58.8528 43.1557 58.2778 43.3557 57.6112C43.5557 56.9445 43.764 56.3028 43.9807 55.6862C44.264 54.8695 44.6057 53.9112 45.0057 52.8112C45.4057 51.7112 45.8307 50.5612 46.2807 49.3612C46.7474 48.1612 47.214 46.9778 47.6807 45.8112C48.164 44.6445 48.6307 43.5862 49.0807 42.6362C47.9307 42.6528 46.964 42.6778 46.1807 42.7112C45.414 42.7445 44.7224 42.7945 44.1057 42.8612C43.489 42.9112 42.814 43.0028 42.0807 43.1362C42.1307 42.5695 42.4224 42.1278 42.9557 41.8112C43.489 41.4945 44.2057 41.2695 45.1057 41.1362C46.0057 41.0028 47.0307 40.9362 48.1807 40.9362C49.3307 40.9362 50.3557 40.9862 51.2557 41.0862C52.1724 41.1695 53.0307 41.2528 53.8307 41.3362C54.6307 41.4195 55.4307 41.4695 56.2307 41.4862C55.664 42.0028 55.014 42.3278 54.2807 42.4612C53.5474 42.5945 52.7724 42.6612 51.9557 42.6612C51.6724 42.6612 51.3807 42.6612 51.0807 42.6612C50.7807 42.6445 50.4807 42.6362 50.1807 42.6362C49.6474 43.9695 49.0307 45.6528 48.3307 47.6862C47.6474 49.7195 46.9557 52.0112 46.2557 54.5612C45.889 55.8778 45.589 57.0028 45.3557 57.9362C45.1224 58.8528 45.0057 59.7278 45.0057 60.5612C45.0057 60.6445 45.0057 60.7362 45.0057 60.8362C45.0057 60.9362 45.014 61.0278 45.0307 61.1112ZM52.7856 59.8862C52.4689 59.8862 52.2189 59.6195 52.0356 59.0862C51.8523 58.5528 51.7606 57.9528 51.7606 57.2862C51.7606 56.4862 51.8939 55.5362 52.1606 54.4362C52.4273 53.3362 52.7773 52.1778 53.2106 50.9612C53.6439 49.7445 54.1273 48.5528 54.6606 47.3862C55.2106 46.2195 55.7689 45.1612 56.3356 44.2112C56.9023 43.2612 57.4356 42.5028 57.9356 41.9362C58.4356 41.3695 58.8689 41.0862 59.2356 41.0862C59.5356 41.0862 59.7439 41.2695 59.8606 41.6362C59.9939 41.9862 60.0606 42.3278 60.0606 42.6612C60.0606 43.1278 59.9523 43.6945 59.7356 44.3612C59.5356 45.0278 59.2523 45.7445 58.8856 46.5112C58.5189 47.2612 58.0939 48.0028 57.6106 48.7362C57.1273 49.4695 56.6023 50.1445 56.0356 50.7612C55.4689 51.3612 54.8939 51.8362 54.3106 52.1862C54.1106 52.6695 53.9356 53.2112 53.7856 53.8112C53.6523 54.4112 53.5523 55.0028 53.4856 55.5862C53.4189 56.1528 53.3856 56.6612 53.3856 57.1112C53.3856 57.2945 53.3856 57.4528 53.3856 57.5862C53.4023 57.7195 53.4189 57.8445 53.4356 57.9612C53.8356 56.8112 54.2856 55.7445 54.7856 54.7612C55.2856 53.7778 55.8439 52.9862 56.4606 52.3862C57.0939 51.7862 57.7773 51.4862 58.5106 51.4862C59.1939 51.4862 59.6773 51.7278 59.9606 52.2112C60.2606 52.6778 60.4106 53.1862 60.4106 53.7362C60.4106 54.2528 60.3189 54.7528 60.1356 55.2362C59.9689 55.7195 59.7939 56.1862 59.6106 56.6362C59.4273 57.0862 59.3356 57.5195 59.3356 57.9362C59.3356 58.2695 59.4023 58.5112 59.5356 58.6612C59.6856 58.8112 59.8689 58.8862 60.0856 58.8862C60.4689 58.8862 60.8939 58.7028 61.3606 58.3362C61.8439 57.9695 62.3189 57.4862 62.7856 56.8862C63.2523 56.2695 63.6523 55.6028 63.9856 54.8862L64.3106 55.1862C63.9606 56.0028 63.5356 56.7445 63.0356 57.4112C62.5356 58.0612 61.9856 58.5778 61.3856 58.9612C60.7856 59.3445 60.1606 59.5362 59.5106 59.5362C58.9439 59.5362 58.5106 59.3862 58.2106 59.0862C57.9273 58.7862 57.7856 58.4112 57.7856 57.9612C57.7856 57.6112 57.8523 57.2195 57.9856 56.7862C58.1189 56.3528 58.2439 55.9112 58.3606 55.4612C58.4939 55.0112 58.5606 54.5862 58.5606 54.1862C58.5606 53.7528 58.4689 53.4445 58.2856 53.2612C58.1023 53.0778 57.8773 52.9862 57.6106 52.9862C57.1939 52.9862 56.8189 53.1528 56.4856 53.4862C56.1523 53.8195 55.8439 54.2528 55.5606 54.7862C55.2939 55.3028 55.0356 55.8528 54.7856 56.4362C54.5523 57.0195 54.3273 57.5778 54.1106 58.1112C53.8939 58.6278 53.6773 59.0528 53.4606 59.3862C53.2439 59.7195 53.0189 59.8862 52.7856 59.8862ZM54.6356 51.2112C55.1023 50.8445 55.5523 50.3778 55.9856 49.8112C56.4356 49.2445 56.8523 48.6445 57.2356 48.0112C57.6189 47.3612 57.9606 46.7278 58.2606 46.1112C58.5606 45.4945 58.7939 44.9362 58.9606 44.4362C59.1273 43.9362 59.2106 43.5612 59.2106 43.3112C59.2106 43.1778 59.1773 43.1112 59.1106 43.1112C58.9939 43.1112 58.7523 43.3445 58.3856 43.8112C58.0356 44.2612 57.6273 44.8695 57.1606 45.6362C56.6939 46.4028 56.2356 47.2695 55.7856 48.2362C55.3356 49.2028 54.9523 50.1945 54.6356 51.2112ZM66.2002 60.0362C65.1836 60.0362 64.4169 59.7528 63.9002 59.1862C63.4002 58.6362 63.1502 57.9528 63.1502 57.1362C63.1502 56.3862 63.3336 55.5945 63.7002 54.7612C64.0836 53.9278 64.5836 53.1445 65.2002 52.4112C65.8336 51.6778 66.5252 51.0862 67.2752 50.6362C68.0252 50.1695 68.7669 49.9362 69.5002 49.9362C69.8836 49.9362 70.2336 50.0362 70.5502 50.2362C70.8836 50.4362 71.0502 50.8445 71.0502 51.4612C71.0502 52.0945 70.8586 52.6945 70.4752 53.2612C70.1086 53.8112 69.6169 54.3028 69.0002 54.7362C68.4002 55.1695 67.7336 55.5278 67.0002 55.8112C66.2836 56.0778 65.5669 56.2445 64.8502 56.3112C64.8169 56.4778 64.7919 56.6362 64.7752 56.7862C64.7586 56.9362 64.7502 57.0778 64.7502 57.2112C64.7502 57.7278 64.8836 58.2112 65.1502 58.6612C65.4336 59.0945 65.9586 59.3112 66.7252 59.3112C67.4419 59.3112 68.1502 59.1112 68.8502 58.7112C69.5502 58.2945 70.2002 57.7528 70.8002 57.0862C71.4002 56.4195 71.9086 55.6862 72.3252 54.8862L72.6252 55.1112C72.1752 56.1112 71.6002 56.9778 70.9002 57.7112C70.2169 58.4445 69.4669 59.0112 68.6502 59.4112C67.8502 59.8278 67.0336 60.0362 66.2002 60.0362ZM64.9752 55.8362C65.4252 55.6862 65.9336 55.4695 66.5002 55.1862C67.0669 54.8862 67.6086 54.5362 68.1252 54.1362C68.6586 53.7362 69.0919 53.2945 69.4252 52.8112C69.7752 52.3278 69.9502 51.8195 69.9502 51.2862C69.9502 51.1028 69.9169 50.9612 69.8502 50.8612C69.7836 50.7612 69.6419 50.7112 69.4252 50.7112C69.0252 50.7112 68.6002 50.8695 68.1502 51.1862C67.7002 51.4862 67.2669 51.8862 66.8502 52.3862C66.4336 52.8862 66.0586 53.4362 65.7252 54.0362C65.3919 54.6362 65.1419 55.2362 64.9752 55.8362Z" fill="url(#paint1_linear)"/>
<path d="M34.3549 83.3787C34.3049 83.3787 34.1882 83.1454 34.0049 82.6787L28.6049 69.1287C28.2049 68.2621 27.6049 67.7121 26.8049 67.4787C26.5215 67.3787 26.3132 67.2871 26.1799 67.2037C26.0465 67.1204 25.9799 67.0287 25.9799 66.9287C25.9799 66.7454 26.2215 66.6537 26.7049 66.6537L27.7549 66.6787C28.2549 66.7121 28.6465 66.7287 28.9299 66.7287L30.4299 66.7037C30.6465 66.6871 30.9215 66.6787 31.2549 66.6787C31.7382 66.6787 31.9799 66.7704 31.9799 66.9537C31.9799 67.0704 31.9132 67.1621 31.7799 67.2287C31.6632 67.2954 31.4549 67.3704 31.1549 67.4537C30.8215 67.5371 30.6549 67.8121 30.6549 68.2787C30.6549 68.4954 30.6799 68.7121 30.7299 68.9287C30.7965 69.1454 30.8382 69.2871 30.8549 69.3537C31.6049 71.2871 32.2632 72.9371 32.8299 74.3037C33.3965 75.6537 34.1049 77.2787 34.9549 79.1787C35.0215 79.3454 35.0882 79.4287 35.1549 79.4287C35.2215 79.4287 35.2799 79.3537 35.3299 79.2037L37.2799 74.3787C37.3799 74.1287 37.4299 73.9371 37.4299 73.8037C37.4299 73.6704 37.3632 73.4287 37.2299 73.0787L35.8049 69.5287C35.6049 69.0287 35.2799 68.5954 34.8299 68.2287C34.3799 67.8621 33.9132 67.6121 33.4299 67.4787C33.1465 67.3954 32.9382 67.3121 32.8049 67.2287C32.6715 67.1287 32.6049 67.0287 32.6049 66.9287C32.6049 66.7454 32.8465 66.6537 33.3299 66.6537L34.4049 66.6787C34.9382 66.7121 35.3632 66.7287 35.6799 66.7287L36.8299 66.7037C37.0299 66.6871 37.2882 66.6787 37.6049 66.6787C38.0882 66.6787 38.3299 66.7704 38.3299 66.9537C38.3299 67.0371 38.2882 67.1121 38.2049 67.1787C38.1382 67.2454 38.0299 67.3204 37.8799 67.4037C37.4965 67.5704 37.3049 67.7704 37.3049 68.0037C37.3049 68.0371 37.3215 68.1037 37.3549 68.2037C37.4715 68.5371 37.6382 68.9954 37.8549 69.5787C38.0882 70.1454 38.2965 70.6287 38.4799 71.0287C38.4965 71.0621 38.5215 71.1287 38.5549 71.2287C38.6049 71.3121 38.6549 71.3537 38.7049 71.3537C38.7549 71.3537 38.8299 71.2454 38.9299 71.0287C39.2632 70.2787 39.5965 69.3371 39.9299 68.2037C39.9465 68.1537 39.9549 68.0954 39.9549 68.0287C39.9549 67.8787 39.9049 67.7621 39.8049 67.6787C39.7215 67.5787 39.5965 67.4787 39.4299 67.3787C39.4132 67.3621 39.3632 67.3287 39.2799 67.2787C39.1965 67.2287 39.1299 67.1787 39.0799 67.1287C39.0465 67.0787 39.0299 67.0204 39.0299 66.9537C39.0299 66.7704 39.2715 66.6787 39.7549 66.6787L40.5549 66.7037C40.6549 66.7204 40.8215 66.7287 41.0549 66.7287L41.7799 66.7037C42.0799 66.6704 42.3299 66.6537 42.5299 66.6537C43.0132 66.6537 43.2549 66.7454 43.2549 66.9287C43.2549 67.1454 42.9799 67.3121 42.4299 67.4287C41.9299 67.5454 41.5799 67.6787 41.3799 67.8287C41.1799 67.9787 40.9632 68.2454 40.7299 68.6287C40.5965 68.8621 40.3882 69.2954 40.1049 69.9287C39.8382 70.5621 39.6049 71.1537 39.4049 71.7037C39.3382 71.8537 39.2882 72.0287 39.2549 72.2287C39.2215 72.4287 39.2215 72.5704 39.2549 72.6537L41.8299 79.2787C41.8632 79.3454 41.8882 79.3787 41.9049 79.3787C41.9549 79.3787 42.0215 79.2954 42.1049 79.1287C42.7382 77.4454 43.7549 74.2204 45.1549 69.4537C45.2549 69.1537 45.3049 68.8537 45.3049 68.5537C45.3049 67.9704 45.0549 67.6121 44.5549 67.4787C44.0049 67.3287 43.7299 67.1621 43.7299 66.9787C43.7299 66.7954 43.9715 66.7037 44.4549 66.7037L46.2549 66.7287C46.5715 66.7287 46.9965 66.7121 47.5299 66.6787L48.5049 66.6537C48.9882 66.6537 49.2299 66.7454 49.2299 66.9287C49.2299 67.1454 48.9549 67.3121 48.4049 67.4287C47.5215 67.6287 46.8382 68.3621 46.3549 69.6287L41.9299 82.7037C41.8965 82.8037 41.8382 82.9204 41.7549 83.0537C41.6882 83.2037 41.6132 83.2787 41.5299 83.2787C41.4632 83.2787 41.3882 83.2287 41.3049 83.1287C41.2215 83.0287 41.1549 82.9204 41.1049 82.8037C40.4882 81.4204 39.8382 79.8121 39.1549 77.9787L38.0299 75.0787C37.9799 74.9787 37.9465 74.9287 37.9299 74.9287C37.8965 74.9287 37.8382 75.0287 37.7549 75.2287C37.1882 76.5787 36.7049 77.7537 36.3049 78.7537C35.9215 79.7537 35.4549 81.0371 34.9049 82.6037C34.8382 82.8037 34.7549 82.9787 34.6549 83.1287C34.5549 83.2954 34.4549 83.3787 34.3549 83.3787ZM52.24 83.3287C51.3234 83.3287 50.4817 83.1121 49.715 82.6787C48.965 82.2454 48.365 81.6454 47.915 80.8787C47.4817 80.1121 47.265 79.2537 47.265 78.3037C47.265 77.3871 47.5067 76.4871 47.99 75.6037C48.49 74.7204 49.1567 74.0037 49.99 73.4537C50.84 72.9037 51.7567 72.6287 52.74 72.6287C53.69 72.6287 54.5567 72.8621 55.34 73.3287C56.1234 73.7787 56.74 74.3954 57.19 75.1787C57.6567 75.9454 57.89 76.7704 57.89 77.6537C57.89 78.6537 57.6734 79.5871 57.24 80.4537C56.8067 81.3204 56.165 82.0204 55.315 82.5537C54.465 83.0704 53.44 83.3287 52.24 83.3287ZM52.765 82.5787C54.015 82.5787 54.8734 82.1204 55.34 81.2037C55.6734 80.5537 55.84 79.5704 55.84 78.2537C55.84 77.4537 55.69 76.6787 55.39 75.9287C55.09 75.1787 54.6734 74.5704 54.14 74.1037C53.6067 73.6371 52.9984 73.4037 52.315 73.4037C51.8317 73.4037 51.415 73.4787 51.065 73.6287C50.715 73.7787 50.3984 74.0371 50.115 74.4037C49.815 74.7871 49.6067 75.2621 49.49 75.8287C49.3734 76.3787 49.315 77.0121 49.315 77.7287C49.315 78.5621 49.465 79.3537 49.765 80.1037C50.065 80.8371 50.4734 81.4371 50.99 81.9037C51.5234 82.3537 52.115 82.5787 52.765 82.5787ZM59.993 83.0537C59.6596 83.0537 59.493 82.9621 59.493 82.7787C59.493 82.6621 59.5346 82.5871 59.618 82.5537C59.7013 82.5037 59.8513 82.4454 60.068 82.3787C60.7013 82.2287 61.018 81.9121 61.018 81.4287V76.0537C61.018 75.5537 60.943 75.1537 60.793 74.8537C60.643 74.5371 60.3763 74.3371 59.993 74.2537C59.9263 74.2371 59.868 74.1954 59.818 74.1287C59.768 74.0621 59.743 73.9954 59.743 73.9287C59.743 73.8621 59.768 73.8037 59.818 73.7537C59.868 73.6871 59.918 73.6454 59.968 73.6287C60.6346 73.4121 61.4596 73.0037 62.443 72.4037C62.6263 72.2871 62.7513 72.2287 62.818 72.2287C62.9013 72.2287 62.943 72.2871 62.943 72.4037C62.943 72.8537 62.918 73.4787 62.868 74.2787C62.868 74.3121 62.8846 74.3287 62.918 74.3287C63.3346 73.8287 63.8013 73.4204 64.318 73.1037C64.8346 72.7871 65.3263 72.6287 65.793 72.6287C66.143 72.6287 66.4263 72.7037 66.643 72.8537C66.8763 73.0037 66.993 73.1954 66.993 73.4287C66.993 73.6954 66.8846 73.9787 66.668 74.2787C66.468 74.5787 66.2513 74.7287 66.018 74.7287C65.8513 74.7287 65.618 74.6537 65.318 74.5037C65.268 74.4871 65.1513 74.4454 64.968 74.3787C64.8013 74.3121 64.6513 74.2787 64.518 74.2787C64.0346 74.2787 63.6263 74.4371 63.293 74.7537C62.9596 75.0704 62.793 75.6121 62.793 76.3787V81.4287C62.793 81.6454 62.9013 81.8287 63.118 81.9787C63.3346 82.1121 63.668 82.2454 64.118 82.3787C64.318 82.4454 64.4596 82.5037 64.543 82.5537C64.643 82.6037 64.693 82.6787 64.693 82.7787C64.693 82.9621 64.5263 83.0537 64.193 83.0537C63.743 83.0537 63.3513 83.0287 63.018 82.9787C62.618 82.9454 62.2846 82.9287 62.018 82.9287C61.7513 82.9287 61.4346 82.9454 61.068 82.9787C60.8013 83.0287 60.443 83.0537 59.993 83.0537ZM68.0926 83.0537C67.7592 83.0537 67.5926 82.9787 67.5926 82.8287C67.5926 82.7121 67.6342 82.6287 67.7176 82.5787C67.8176 82.5121 67.9676 82.4454 68.1676 82.3787C68.5342 82.2621 68.8009 82.1537 68.9676 82.0537C69.1509 81.9371 69.2426 81.7287 69.2426 81.4287V68.8287C69.2426 67.7787 68.8592 67.1704 68.0926 67.0037C68.0259 66.9871 67.9759 66.9537 67.9426 66.9037C67.9092 66.8371 67.8926 66.7621 67.8926 66.6787C67.8926 66.5121 67.9509 66.4121 68.0676 66.3787C68.7176 66.2287 69.4592 65.9787 70.2926 65.6287L70.8926 65.4037C70.9592 65.3704 71.0092 65.3537 71.0426 65.3537C71.0759 65.3537 71.1009 65.3787 71.1176 65.4287C71.1509 65.4621 71.1676 65.4954 71.1676 65.5287C71.1676 65.6287 71.1342 65.9454 71.0676 66.4787C71.0176 67.0121 70.9926 67.8287 70.9926 68.9287V81.4287C70.9926 81.7287 71.0759 81.9371 71.2426 82.0537C71.4259 82.1537 71.7009 82.2621 72.0676 82.3787C72.2676 82.4454 72.4092 82.5121 72.4926 82.5787C72.5926 82.6287 72.6426 82.7121 72.6426 82.8287C72.6426 82.9787 72.4759 83.0537 72.1426 83.0537C71.7092 83.0537 71.3509 83.0287 71.0676 82.9787C70.7009 82.9454 70.3842 82.9287 70.1176 82.9287C69.8509 82.9287 69.5342 82.9454 69.1676 82.9787C68.9009 83.0287 68.5426 83.0537 68.0926 83.0537ZM82.0484 83.4537C82.0151 83.4537 81.9568 83.4204 81.8734 83.3537C81.8068 83.2871 81.7734 83.2371 81.7734 83.2037L81.8234 82.5537C81.8734 82.2537 81.8984 81.9704 81.8984 81.7037V81.5537C81.5984 82.0204 81.1651 82.4371 80.5984 82.8037C80.0318 83.1537 79.3734 83.3287 78.6234 83.3287C77.7068 83.3287 76.8984 83.0871 76.1984 82.6037C75.4984 82.1204 74.9568 81.4871 74.5734 80.7037C74.1901 79.9037 73.9984 79.0787 73.9984 78.2287C73.9984 77.2454 74.2234 76.3287 74.6734 75.4787C75.1401 74.6121 75.7984 73.9204 76.6484 73.4037C77.4984 72.8871 78.4901 72.6287 79.6234 72.6287C79.9401 72.6287 80.2651 72.6621 80.5984 72.7287C80.9318 72.7787 81.2068 72.8371 81.4234 72.9037C81.5734 72.9537 81.6818 72.9787 81.7484 72.9787C81.7984 72.9787 81.8401 72.9287 81.8734 72.8287C81.9068 72.7287 81.9234 72.5787 81.9234 72.3787V68.8287C81.9234 68.1954 81.8234 67.7537 81.6234 67.5037C81.4234 67.2537 81.1068 67.0871 80.6734 67.0037C80.5234 66.9704 80.4484 66.8621 80.4484 66.6787C80.4484 66.5287 80.5151 66.4287 80.6484 66.3787C81.5318 66.1621 82.1901 65.9621 82.6234 65.7787C83.0568 65.5787 83.2984 65.4704 83.3484 65.4537C83.4818 65.4037 83.5901 65.3787 83.6734 65.3787C83.7734 65.3787 83.8318 65.4287 83.8484 65.5287C83.8484 65.6287 83.8151 65.9454 83.7484 66.4787C83.6984 67.0121 83.6734 67.8287 83.6734 68.9287V80.2287C83.6734 80.8121 83.7151 81.2287 83.7984 81.4787C83.8818 81.7287 84.0151 81.8537 84.1984 81.8537C84.4818 81.8537 84.8401 81.8287 85.2734 81.7787H85.3984C85.6151 81.7787 85.7234 81.8537 85.7234 82.0037C85.7234 82.1204 85.6818 82.2287 85.5984 82.3287C85.5318 82.4121 85.4568 82.4537 85.3734 82.4537C84.4734 82.5704 83.4984 82.8537 82.4484 83.3037C82.2651 83.4037 82.1318 83.4537 82.0484 83.4537ZM79.5234 82.0287C79.9568 82.0287 80.3818 81.9204 80.7984 81.7037C81.2151 81.4704 81.5818 81.1704 81.8984 80.8037L81.9234 76.3037C81.9234 75.8537 81.7901 75.4121 81.5234 74.9787C81.2734 74.5454 80.9068 74.1954 80.4234 73.9287C79.9568 73.6454 79.4318 73.5037 78.8484 73.5037C78.3984 73.5037 77.9401 73.6287 77.4734 73.8787C77.0068 74.1287 76.6068 74.5621 76.2734 75.1787C75.9401 75.7954 75.7734 76.6204 75.7734 77.6537C75.7734 78.8037 75.9901 79.7037 76.4234 80.3537C76.8568 81.0037 77.3568 81.4454 77.9234 81.6787C78.4901 81.9121 79.0234 82.0287 79.5234 82.0287Z" fill="#2F2D9D"/>
<path d="M34.3549 83.3787C34.3049 83.3787 34.1882 83.1454 34.0049 82.6787L28.6049 69.1287C28.2049 68.2621 27.6049 67.7121 26.8049 67.4787C26.5215 67.3787 26.3132 67.2871 26.1799 67.2037C26.0465 67.1204 25.9799 67.0287 25.9799 66.9287C25.9799 66.7454 26.2215 66.6537 26.7049 66.6537L27.7549 66.6787C28.2549 66.7121 28.6465 66.7287 28.9299 66.7287L30.4299 66.7037C30.6465 66.6871 30.9215 66.6787 31.2549 66.6787C31.7382 66.6787 31.9799 66.7704 31.9799 66.9537C31.9799 67.0704 31.9132 67.1621 31.7799 67.2287C31.6632 67.2954 31.4549 67.3704 31.1549 67.4537C30.8215 67.5371 30.6549 67.8121 30.6549 68.2787C30.6549 68.4954 30.6799 68.7121 30.7299 68.9287C30.7965 69.1454 30.8382 69.2871 30.8549 69.3537C31.6049 71.2871 32.2632 72.9371 32.8299 74.3037C33.3965 75.6537 34.1049 77.2787 34.9549 79.1787C35.0215 79.3454 35.0882 79.4287 35.1549 79.4287C35.2215 79.4287 35.2799 79.3537 35.3299 79.2037L37.2799 74.3787C37.3799 74.1287 37.4299 73.9371 37.4299 73.8037C37.4299 73.6704 37.3632 73.4287 37.2299 73.0787L35.8049 69.5287C35.6049 69.0287 35.2799 68.5954 34.8299 68.2287C34.3799 67.8621 33.9132 67.6121 33.4299 67.4787C33.1465 67.3954 32.9382 67.3121 32.8049 67.2287C32.6715 67.1287 32.6049 67.0287 32.6049 66.9287C32.6049 66.7454 32.8465 66.6537 33.3299 66.6537L34.4049 66.6787C34.9382 66.7121 35.3632 66.7287 35.6799 66.7287L36.8299 66.7037C37.0299 66.6871 37.2882 66.6787 37.6049 66.6787C38.0882 66.6787 38.3299 66.7704 38.3299 66.9537C38.3299 67.0371 38.2882 67.1121 38.2049 67.1787C38.1382 67.2454 38.0299 67.3204 37.8799 67.4037C37.4965 67.5704 37.3049 67.7704 37.3049 68.0037C37.3049 68.0371 37.3215 68.1037 37.3549 68.2037C37.4715 68.5371 37.6382 68.9954 37.8549 69.5787C38.0882 70.1454 38.2965 70.6287 38.4799 71.0287C38.4965 71.0621 38.5215 71.1287 38.5549 71.2287C38.6049 71.3121 38.6549 71.3537 38.7049 71.3537C38.7549 71.3537 38.8299 71.2454 38.9299 71.0287C39.2632 70.2787 39.5965 69.3371 39.9299 68.2037C39.9465 68.1537 39.9549 68.0954 39.9549 68.0287C39.9549 67.8787 39.9049 67.7621 39.8049 67.6787C39.7215 67.5787 39.5965 67.4787 39.4299 67.3787C39.4132 67.3621 39.3632 67.3287 39.2799 67.2787C39.1965 67.2287 39.1299 67.1787 39.0799 67.1287C39.0465 67.0787 39.0299 67.0204 39.0299 66.9537C39.0299 66.7704 39.2715 66.6787 39.7549 66.6787L40.5549 66.7037C40.6549 66.7204 40.8215 66.7287 41.0549 66.7287L41.7799 66.7037C42.0799 66.6704 42.3299 66.6537 42.5299 66.6537C43.0132 66.6537 43.2549 66.7454 43.2549 66.9287C43.2549 67.1454 42.9799 67.3121 42.4299 67.4287C41.9299 67.5454 41.5799 67.6787 41.3799 67.8287C41.1799 67.9787 40.9632 68.2454 40.7299 68.6287C40.5965 68.8621 40.3882 69.2954 40.1049 69.9287C39.8382 70.5621 39.6049 71.1537 39.4049 71.7037C39.3382 71.8537 39.2882 72.0287 39.2549 72.2287C39.2215 72.4287 39.2215 72.5704 39.2549 72.6537L41.8299 79.2787C41.8632 79.3454 41.8882 79.3787 41.9049 79.3787C41.9549 79.3787 42.0215 79.2954 42.1049 79.1287C42.7382 77.4454 43.7549 74.2204 45.1549 69.4537C45.2549 69.1537 45.3049 68.8537 45.3049 68.5537C45.3049 67.9704 45.0549 67.6121 44.5549 67.4787C44.0049 67.3287 43.7299 67.1621 43.7299 66.9787C43.7299 66.7954 43.9715 66.7037 44.4549 66.7037L46.2549 66.7287C46.5715 66.7287 46.9965 66.7121 47.5299 66.6787L48.5049 66.6537C48.9882 66.6537 49.2299 66.7454 49.2299 66.9287C49.2299 67.1454 48.9549 67.3121 48.4049 67.4287C47.5215 67.6287 46.8382 68.3621 46.3549 69.6287L41.9299 82.7037C41.8965 82.8037 41.8382 82.9204 41.7549 83.0537C41.6882 83.2037 41.6132 83.2787 41.5299 83.2787C41.4632 83.2787 41.3882 83.2287 41.3049 83.1287C41.2215 83.0287 41.1549 82.9204 41.1049 82.8037C40.4882 81.4204 39.8382 79.8121 39.1549 77.9787L38.0299 75.0787C37.9799 74.9787 37.9465 74.9287 37.9299 74.9287C37.8965 74.9287 37.8382 75.0287 37.7549 75.2287C37.1882 76.5787 36.7049 77.7537 36.3049 78.7537C35.9215 79.7537 35.4549 81.0371 34.9049 82.6037C34.8382 82.8037 34.7549 82.9787 34.6549 83.1287C34.5549 83.2954 34.4549 83.3787 34.3549 83.3787ZM52.24 83.3287C51.3234 83.3287 50.4817 83.1121 49.715 82.6787C48.965 82.2454 48.365 81.6454 47.915 80.8787C47.4817 80.1121 47.265 79.2537 47.265 78.3037C47.265 77.3871 47.5067 76.4871 47.99 75.6037C48.49 74.7204 49.1567 74.0037 49.99 73.4537C50.84 72.9037 51.7567 72.6287 52.74 72.6287C53.69 72.6287 54.5567 72.8621 55.34 73.3287C56.1234 73.7787 56.74 74.3954 57.19 75.1787C57.6567 75.9454 57.89 76.7704 57.89 77.6537C57.89 78.6537 57.6734 79.5871 57.24 80.4537C56.8067 81.3204 56.165 82.0204 55.315 82.5537C54.465 83.0704 53.44 83.3287 52.24 83.3287ZM52.765 82.5787C54.015 82.5787 54.8734 82.1204 55.34 81.2037C55.6734 80.5537 55.84 79.5704 55.84 78.2537C55.84 77.4537 55.69 76.6787 55.39 75.9287C55.09 75.1787 54.6734 74.5704 54.14 74.1037C53.6067 73.6371 52.9984 73.4037 52.315 73.4037C51.8317 73.4037 51.415 73.4787 51.065 73.6287C50.715 73.7787 50.3984 74.0371 50.115 74.4037C49.815 74.7871 49.6067 75.2621 49.49 75.8287C49.3734 76.3787 49.315 77.0121 49.315 77.7287C49.315 78.5621 49.465 79.3537 49.765 80.1037C50.065 80.8371 50.4734 81.4371 50.99 81.9037C51.5234 82.3537 52.115 82.5787 52.765 82.5787ZM59.993 83.0537C59.6596 83.0537 59.493 82.9621 59.493 82.7787C59.493 82.6621 59.5346 82.5871 59.618 82.5537C59.7013 82.5037 59.8513 82.4454 60.068 82.3787C60.7013 82.2287 61.018 81.9121 61.018 81.4287V76.0537C61.018 75.5537 60.943 75.1537 60.793 74.8537C60.643 74.5371 60.3763 74.3371 59.993 74.2537C59.9263 74.2371 59.868 74.1954 59.818 74.1287C59.768 74.0621 59.743 73.9954 59.743 73.9287C59.743 73.8621 59.768 73.8037 59.818 73.7537C59.868 73.6871 59.918 73.6454 59.968 73.6287C60.6346 73.4121 61.4596 73.0037 62.443 72.4037C62.6263 72.2871 62.7513 72.2287 62.818 72.2287C62.9013 72.2287 62.943 72.2871 62.943 72.4037C62.943 72.8537 62.918 73.4787 62.868 74.2787C62.868 74.3121 62.8846 74.3287 62.918 74.3287C63.3346 73.8287 63.8013 73.4204 64.318 73.1037C64.8346 72.7871 65.3263 72.6287 65.793 72.6287C66.143 72.6287 66.4263 72.7037 66.643 72.8537C66.8763 73.0037 66.993 73.1954 66.993 73.4287C66.993 73.6954 66.8846 73.9787 66.668 74.2787C66.468 74.5787 66.2513 74.7287 66.018 74.7287C65.8513 74.7287 65.618 74.6537 65.318 74.5037C65.268 74.4871 65.1513 74.4454 64.968 74.3787C64.8013 74.3121 64.6513 74.2787 64.518 74.2787C64.0346 74.2787 63.6263 74.4371 63.293 74.7537C62.9596 75.0704 62.793 75.6121 62.793 76.3787V81.4287C62.793 81.6454 62.9013 81.8287 63.118 81.9787C63.3346 82.1121 63.668 82.2454 64.118 82.3787C64.318 82.4454 64.4596 82.5037 64.543 82.5537C64.643 82.6037 64.693 82.6787 64.693 82.7787C64.693 82.9621 64.5263 83.0537 64.193 83.0537C63.743 83.0537 63.3513 83.0287 63.018 82.9787C62.618 82.9454 62.2846 82.9287 62.018 82.9287C61.7513 82.9287 61.4346 82.9454 61.068 82.9787C60.8013 83.0287 60.443 83.0537 59.993 83.0537ZM68.0926 83.0537C67.7592 83.0537 67.5926 82.9787 67.5926 82.8287C67.5926 82.7121 67.6342 82.6287 67.7176 82.5787C67.8176 82.5121 67.9676 82.4454 68.1676 82.3787C68.5342 82.2621 68.8009 82.1537 68.9676 82.0537C69.1509 81.9371 69.2426 81.7287 69.2426 81.4287V68.8287C69.2426 67.7787 68.8592 67.1704 68.0926 67.0037C68.0259 66.9871 67.9759 66.9537 67.9426 66.9037C67.9092 66.8371 67.8926 66.7621 67.8926 66.6787C67.8926 66.5121 67.9509 66.4121 68.0676 66.3787C68.7176 66.2287 69.4592 65.9787 70.2926 65.6287L70.8926 65.4037C70.9592 65.3704 71.0092 65.3537 71.0426 65.3537C71.0759 65.3537 71.1009 65.3787 71.1176 65.4287C71.1509 65.4621 71.1676 65.4954 71.1676 65.5287C71.1676 65.6287 71.1342 65.9454 71.0676 66.4787C71.0176 67.0121 70.9926 67.8287 70.9926 68.9287V81.4287C70.9926 81.7287 71.0759 81.9371 71.2426 82.0537C71.4259 82.1537 71.7009 82.2621 72.0676 82.3787C72.2676 82.4454 72.4092 82.5121 72.4926 82.5787C72.5926 82.6287 72.6426 82.7121 72.6426 82.8287C72.6426 82.9787 72.4759 83.0537 72.1426 83.0537C71.7092 83.0537 71.3509 83.0287 71.0676 82.9787C70.7009 82.9454 70.3842 82.9287 70.1176 82.9287C69.8509 82.9287 69.5342 82.9454 69.1676 82.9787C68.9009 83.0287 68.5426 83.0537 68.0926 83.0537ZM82.0484 83.4537C82.0151 83.4537 81.9568 83.4204 81.8734 83.3537C81.8068 83.2871 81.7734 83.2371 81.7734 83.2037L81.8234 82.5537C81.8734 82.2537 81.8984 81.9704 81.8984 81.7037V81.5537C81.5984 82.0204 81.1651 82.4371 80.5984 82.8037C80.0318 83.1537 79.3734 83.3287 78.6234 83.3287C77.7068 83.3287 76.8984 83.0871 76.1984 82.6037C75.4984 82.1204 74.9568 81.4871 74.5734 80.7037C74.1901 79.9037 73.9984 79.0787 73.9984 78.2287C73.9984 77.2454 74.2234 76.3287 74.6734 75.4787C75.1401 74.6121 75.7984 73.9204 76.6484 73.4037C77.4984 72.8871 78.4901 72.6287 79.6234 72.6287C79.9401 72.6287 80.2651 72.6621 80.5984 72.7287C80.9318 72.7787 81.2068 72.8371 81.4234 72.9037C81.5734 72.9537 81.6818 72.9787 81.7484 72.9787C81.7984 72.9787 81.8401 72.9287 81.8734 72.8287C81.9068 72.7287 81.9234 72.5787 81.9234 72.3787V68.8287C81.9234 68.1954 81.8234 67.7537 81.6234 67.5037C81.4234 67.2537 81.1068 67.0871 80.6734 67.0037C80.5234 66.9704 80.4484 66.8621 80.4484 66.6787C80.4484 66.5287 80.5151 66.4287 80.6484 66.3787C81.5318 66.1621 82.1901 65.9621 82.6234 65.7787C83.0568 65.5787 83.2984 65.4704 83.3484 65.4537C83.4818 65.4037 83.5901 65.3787 83.6734 65.3787C83.7734 65.3787 83.8318 65.4287 83.8484 65.5287C83.8484 65.6287 83.8151 65.9454 83.7484 66.4787C83.6984 67.0121 83.6734 67.8287 83.6734 68.9287V80.2287C83.6734 80.8121 83.7151 81.2287 83.7984 81.4787C83.8818 81.7287 84.0151 81.8537 84.1984 81.8537C84.4818 81.8537 84.8401 81.8287 85.2734 81.7787H85.3984C85.6151 81.7787 85.7234 81.8537 85.7234 82.0037C85.7234 82.1204 85.6818 82.2287 85.5984 82.3287C85.5318 82.4121 85.4568 82.4537 85.3734 82.4537C84.4734 82.5704 83.4984 82.8537 82.4484 83.3037C82.2651 83.4037 82.1318 83.4537 82.0484 83.4537ZM79.5234 82.0287C79.9568 82.0287 80.3818 81.9204 80.7984 81.7037C81.2151 81.4704 81.5818 81.1704 81.8984 80.8037L81.9234 76.3037C81.9234 75.8537 81.7901 75.4121 81.5234 74.9787C81.2734 74.5454 80.9068 74.1954 80.4234 73.9287C79.9568 73.6454 79.4318 73.5037 78.8484 73.5037C78.3984 73.5037 77.9401 73.6287 77.4734 73.8787C77.0068 74.1287 76.6068 74.5621 76.2734 75.1787C75.9401 75.7954 75.7734 76.6204 75.7734 77.6537C75.7734 78.8037 75.9901 79.7037 76.4234 80.3537C76.8568 81.0037 77.3568 81.4454 77.9234 81.6787C78.4901 81.9121 79.0234 82.0287 79.5234 82.0287Z" fill="url(#paint2_linear)"/>
<defs>
<linearGradient id="paint0_linear" x1="56" y1="12.3192" x2="56" y2="43.0213" gradientUnits="userSpaceOnUse">
<stop stop-color="#B1E798"/>
<stop offset="1" stop-color="white" stop-opacity="0"/>
</linearGradient>
<linearGradient id="paint1_linear" x1="56.4228" y1="35.9362" x2="56.4228" y2="64.2766" gradientUnits="userSpaceOnUse">
<stop stop-color="#FFE1B4"/>
<stop offset="1" stop-color="white" stop-opacity="0"/>
</linearGradient>
<linearGradient id="paint2_linear" x1="56.4228" y1="57.9787" x2="56.4228" y2="88.6809" gradientUnits="userSpaceOnUse">
<stop stop-color="#A3D2FE"/>
<stop offset="1" stop-color="white" stop-opacity="0"/>
</linearGradient>
</defs>
</svg>
